<svg class=" shadow-md dark:border-slate-700" viewBox="0 0 776.16 776.16" style="width: 776.16px; height: 776.16px;" xmlns="http://www.w3.org/2000/svg" preserveAspectRatio="none"><rect class="bg" id="bg" x="0" y="0" width="776.16" height="776.16" fill="#000a3c"/><rect x="-20" y="3.8808" width="143" height="23.284799999999997" rx="11.642399999999999" fill="#009ef6" opacity="1"/><rect x="133" y="3.8808" width="208" height="23.284799999999997" rx="11.642399999999999" fill="#ff7360" opacity="1"/><rect x="351" y="3.8808" width="244" height="23.284799999999997" rx="11.642399999999999" fill="#009ef6" opacity="1"/><rect x="605" y="3.8808" width="239" height="23.284799999999997" rx="11.642399999999999" fill="#F5CF05" opacity="1"/><rect x="-20" y="34.9272" width="257" height="23.284799999999997" rx="11.642399999999999" fill="#c552ff" opacity="1"/><rect x="247" y="34.9272" width="77.616" height="23.284799999999997" rx="11.642399999999999" fill="#009ef6" opacity="1"/><rect x="334.616" y="34.9272" width="147" height="23.284799999999997" rx="11.642399999999999" fill="#FBE300" opacity="1"/><rect x="491.616" y="34.9272" width="77.616" height="23.284799999999997" rx="11.642399999999999" fill="#F5CF05" opacity="1"/><rect x="579.232" y="34.9272" width="170" height="23.284799999999997" rx="11.642399999999999" fill="#FBE300" opacity="1"/><rect x="759.232" y="34.9272" width="184" height="23.284799999999997" rx="11.642399999999999" fill="#009ef6" opacity="1"/><rect x="-20" y="65.97359999999999" width="202" height="23.284799999999997" rx="11.642399999999999" fill="#c552ff" opacity="1"/><rect x="192" y="65.97359999999999" width="200" height="23.284799999999997" rx="11.642399999999999" fill="#F5CF05" opacity="1"/><rect x="402" y="65.97359999999999" width="77.616" height="23.284799999999997" rx="11.642399999999999" fill="#FBE300" opacity="1"/><rect x="489.616" y="65.97359999999999" width="221" height="23.284799999999997" rx="11.642399999999999" fill="#F5CF05" opacity="1"/><rect x="720.616" y="65.97359999999999" width="77.616" height="23.284799999999997" rx="11.642399999999999" fill="#ff7360" opacity="1"/><rect x="-20" y="97.01999999999998" width="169" height="23.284799999999997" rx="11.642399999999999" fill="#FBE300" opacity="1"/><rect x="159" y="97.01999999999998" width="169" height="23.284799999999997" rx="11.642399999999999" fill="#c552ff" opacity="1"/><rect x="338" y="97.01999999999998" width="195" height="23.284799999999997" rx="11.642399999999999" fill="#009ef6" opacity="1"/><rect x="543" y="97.01999999999998" width="212" height="23.284799999999997" rx="11.642399999999999" fill="#009ef6" opacity="1"/><rect x="765" y="97.01999999999998" width="77.616" height="23.284799999999997" rx="11.642399999999999" fill="#FBE300" opacity="1"/><rect x="-20" y="128.0664" width="77.616" height="23.284799999999997" rx="11.642399999999999" fill="#009ef6" opacity="1"/><rect x="67.616" y="128.0664" width="77.616" height="23.284799999999997" rx="11.642399999999999" fill="#009ef6" opacity="1"/><rect x="155.232" y="128.0664" width="77.616" height="23.284799999999997" rx="11.642399999999999" fill="#009ef6" opacity="1"/><rect x="242.848" y="128.0664" width="232" height="23.284799999999997" rx="11.642399999999999" fill="#c552ff" opacity="1"/><rect x="484.848" y="128.0664" width="77.616" height="23.284799999999997" rx="11.642399999999999" fill="#c552ff" opacity="1"/><rect x="572.464" y="128.0664" width="128" height="23.284799999999997" rx="11.642399999999999" fill="#c552ff" opacity="1"/><rect x="710.464" y="128.0664" width="77.616" height="23.284799999999997" rx="11.642399999999999" fill="#ff7360" opacity="1"/><rect x="-20" y="159.1128" width="246" height="23.284799999999997" rx="11.642399999999999" fill="#009ef6" opacity="1"/><rect x="236" y="159.1128" width="95" height="23.284799999999997" rx="11.642399999999999" fill="#FBE300" opacity="1"/><rect x="341" y="159.1128" width="248" height="23.284799999999997" rx="11.642399999999999" fill="#F5CF05" opacity="1"/><rect x="599" y="159.1128" width="115" height="23.284799999999997" rx="11.642399999999999" fill="#ff7360" opacity="1"/><rect x="724" y="159.1128" width="79" height="23.284799999999997" rx="11.642399999999999" fill="#009ef6" opacity="1"/><rect x="-20" y="190.15919999999997" width="236" height="23.284799999999997" rx="11.642399999999999" fill="#FBE300" opacity="1"/><rect x="226" y="190.15919999999997" width="85" height="23.284799999999997" rx="11.642399999999999" fill="#ff7360" opacity="1"/><rect x="321" y="190.15919999999997" width="118" height="23.284799999999997" rx="11.642399999999999" fill="#009ef6" opacity="1"/><rect x="449" y="190.15919999999997" width="77.616" height="23.284799999999997" rx="11.642399999999999" fill="#009ef6" opacity="1"/><rect x="536.616" y="190.15919999999997" width="220" height="23.284799999999997" rx="11.642399999999999" fill="#009ef6" opacity="1"/><rect x="766.616" y="190.15919999999997" width="143" height="23.284799999999997" rx="11.642399999999999" fill="#FBE300" opacity="1"/><rect x="-20" y="221.20559999999998" width="77.616" height="23.284799999999997" rx="11.642399999999999" fill="#FBE300" opacity="1"/><rect x="67.616" y="221.20559999999998" width="174" height="23.284799999999997" rx="11.642399999999999" fill="#c552ff" opacity="1"/><rect x="251.61599999999999" y="221.20559999999998" width="93" height="23.284799999999997" rx="11.642399999999999" fill="#FBE300" opacity="1"/><rect x="354.616" y="221.20559999999998" width="253" height="23.284799999999997" rx="11.642399999999999" fill="#009ef6" opacity="1"/><rect x="617.616" y="221.20559999999998" width="77.616" height="23.284799999999997" rx="11.642399999999999" fill="#F5CF05" opacity="1"/><rect x="705.232" y="221.20559999999998" width="225" height="23.284799999999997" rx="11.642399999999999" fill="#FBE300" opacity="1"/><rect x="-20" y="252.25199999999998" width="115" height="23.284799999999997" rx="11.642399999999999" fill="#c552ff" opacity="1"/><rect x="105" y="252.25199999999998" width="81" height="23.284799999999997" rx="11.642399999999999" fill="#c552ff" opacity="1"/><rect x="196" y="252.25199999999998" width="77.616" height="23.284799999999997" rx="11.642399999999999" fill="#009ef6" opacity="1"/><rect x="283.616" y="252.25199999999998" width="218" height="23.284799999999997" rx="11.642399999999999" fill="#FBE300" opacity="1"/><rect x="511.616" y="252.25199999999998" width="231" height="23.284799999999997" rx="11.642399999999999" fill="#F5CF05" opacity="1"/><rect x="752.616" y="252.25199999999998" width="120" height="23.284799999999997" rx="11.642399999999999" fill="#FBE300" opacity="1"/><rect x="-20" y="283.2984" width="77.616" height="23.284799999999997" rx="11.642399999999999" fill="#c552ff" opacity="1"/><rect x="67.616" y="283.2984" width="173" height="23.284799999999997" rx="11.642399999999999" fill="#009ef6" opacity="1"/><rect x="250.61599999999999" y="283.2984" width="77.616" height="23.284799999999997" rx="11.642399999999999" fill="#009ef6" opacity="1"/><rect x="338.23199999999997" y="283.2984" width="193" height="23.284799999999997" rx="11.642399999999999" fill="#F5CF05" opacity="1"/><rect x="541.232" y="283.2984" width="127" height="23.284799999999997" rx="11.642399999999999" fill="#FBE300" opacity="1"/><rect x="678.232" y="283.2984" width="156" height="23.284799999999997" rx="11.642399999999999" fill="#ff7360" opacity="1"/><rect x="-20" y="314.3448" width="90" height="23.284799999999997" rx="11.642399999999999" fill="#c552ff" opacity="1"/><rect x="80" y="314.3448" width="167" height="23.284799999999997" rx="11.642399999999999" fill="#ff7360" opacity="1"/><rect x="257" y="314.3448" width="223" height="23.284799999999997" rx="11.642399999999999" fill="#FBE300" opacity="1"/><rect x="490" y="314.3448" width="77.616" height="23.284799999999997" rx="11.642399999999999" fill="#009ef6" opacity="1"/><rect x="577.616" y="314.3448" width="231" height="23.284799999999997" rx="11.642399999999999" fill="#ff7360" opacity="1"/><rect x="-20" y="345.3912" width="175" height="23.284799999999997" rx="11.642399999999999" fill="#c552ff" opacity="1"/><rect x="165" y="345.3912" width="139" height="23.284799999999997" rx="11.642399999999999" fill="#c552ff" opacity="1"/><rect x="314" y="345.3912" width="77.616" height="23.284799999999997" rx="11.642399999999999" fill="#ff7360" opacity="1"/><rect x="401.616" y="345.3912" width="150" height="23.284799999999997" rx="11.642399999999999" fill="#FBE300" opacity="1"/><rect x="561.616" y="345.3912" width="77.616" height="23.284799999999997" rx="11.642399999999999" fill="#009ef6" opacity="1"/><rect x="649.232" y="345.3912" width="77.616" height="23.284799999999997" rx="11.642399999999999" fill="#009ef6" opacity="1"/><rect x="736.848" y="345.3912" width="77.616" height="23.284799999999997" rx="11.642399999999999" fill="#c552ff" opacity="1"/><rect x="-20" y="376.4376" width="83" height="23.284799999999997" rx="11.642399999999999" fill="#c552ff" opacity="1"/><rect x="73" y="376.4376" width="91" height="23.284799999999997" rx="11.642399999999999" fill="#ff7360" opacity="1"/><rect x="174" y="376.4376" width="241" height="23.284799999999997" rx="11.642399999999999" fill="#FBE300" opacity="1"/><rect x="425" y="376.4376" width="174" height="23.284799999999997" rx="11.642399999999999" fill="#009ef6" opacity="1"/><rect x="609" y="376.4376" width="77.616" height="23.284799999999997" rx="11.642399999999999" fill="#c552ff" opacity="1"/><rect x="696.616" y="376.4376" width="77.616" height="23.284799999999997" rx="11.642399999999999" fill="#009ef6" opacity="1"/><rect x="784.232" y="376.4376" width="77.616" height="23.284799999999997" rx="11.642399999999999" fill="#009ef6" opacity="1"/><rect x="-20" y="407.484" width="77.616" height="23.284799999999997" rx="11.642399999999999" fill="#ff7360" opacity="1"/><rect x="67.616" y="407.484" width="77.616" height="23.284799999999997" rx="11.642399999999999" fill="#FBE300" opacity="1"/><rect x="155.232" y="407.484" width="227" height="23.284799999999997" rx="11.642399999999999" fill="#F5CF05" opacity="1"/><rect x="392.23199999999997" y="407.484" width="108" height="23.284799999999997" rx="11.642399999999999" fill="#009ef6" opacity="1"/><rect x="510.23199999999997" y="407.484" width="94" height="23.284799999999997" rx="11.642399999999999" fill="#c552ff" opacity="1"/><rect x="614.232" y="407.484" width="187" height="23.284799999999997" rx="11.642399999999999" fill="#F5CF05" opacity="1"/><rect x="-20" y="438.5304" width="77.616" height="23.284799999999997" rx="11.642399999999999" fill="#ff7360" opacity="1"/><rect x="67.616" y="438.5304" width="212" height="23.284799999999997" rx="11.642399999999999" fill="#F5CF05" opacity="1"/><rect x="289.616" y="438.5304" width="233" height="23.284799999999997" rx="11.642399999999999" fill="#F5CF05" opacity="1"/><rect x="532.616" y="438.5304" width="118" height="23.284799999999997" rx="11.642399999999999" fill="#F5CF05" opacity="1"/><rect x="660.616" y="438.5304" width="255" height="23.284799999999997" rx="11.642399999999999" fill="#FBE300" opacity="1"/><rect x="-20" y="469.5768" width="181" height="23.284799999999997" rx="11.642399999999999" fill="#FBE300" opacity="1"/><rect x="171" y="469.5768" width="174" height="23.284799999999997" rx="11.642399999999999" fill="#ff7360" opacity="1"/><rect x="355" y="469.5768" width="77.616" height="23.284799999999997" rx="11.642399999999999" fill="#c552ff" opacity="1"/><rect x="442.616" y="469.5768" width="77.616" height="23.284799999999997" rx="11.642399999999999" fill="#009ef6" opacity="1"/><rect x="530.232" y="469.5768" width="142" height="23.284799999999997" rx="11.642399999999999" fill="#FBE300" opacity="1"/><rect x="682.232" y="469.5768" width="221" height="23.284799999999997" rx="11.642399999999999" fill="#FBE300" opacity="1"/><rect x="-20" y="500.6232" width="148" height="23.284799999999997" rx="11.642399999999999" fill="#c552ff" opacity="1"/><rect x="138" y="500.6232" width="77.616" height="23.284799999999997" rx="11.642399999999999" fill="#ff7360" opacity="1"/><rect x="225.61599999999999" y="500.6232" width="234" height="23.284799999999997" rx="11.642399999999999" fill="#FBE300" opacity="1"/><rect x="469.616" y="500.6232" width="120" height="23.284799999999997" rx="11.642399999999999" fill="#c552ff" opacity="1"/><rect x="599.616" y="500.6232" width="133" height="23.284799999999997" rx="11.642399999999999" fill="#009ef6" opacity="1"/><rect x="742.616" y="500.6232" width="77.616" height="23.284799999999997" rx="11.642399999999999" fill="#FBE300" opacity="1"/><rect x="-20" y="531.6696" width="112" height="23.284799999999997" rx="11.642399999999999" fill="#ff7360" opacity="1"/><rect x="102" y="531.6696" width="174" height="23.284799999999997" rx="11.642399999999999" fill="#c552ff" opacity="1"/><rect x="286" y="531.6696" width="115" height="23.284799999999997" rx="11.642399999999999" fill="#FBE300" opacity="1"/><rect x="411" y="531.6696" width="244" height="23.284799999999997" rx="11.642399999999999" fill="#c552ff" opacity="1"/><rect x="665" y="531.6696" width="77.616" height="23.284799999999997" rx="11.642399999999999" fill="#FBE300" opacity="1"/><rect x="752.616" y="531.6696" width="186" height="23.284799999999997" rx="11.642399999999999" fill="#F5CF05" opacity="1"/><rect x="-20" y="562.716" width="77.616" height="23.284799999999997" rx="11.642399999999999" fill="#F5CF05" opacity="1"/><rect x="67.616" y="562.716" width="77.616" height="23.284799999999997" rx="11.642399999999999" fill="#009ef6" opacity="1"/><rect x="155.232" y="562.716" width="77.616" height="23.284799999999997" rx="11.642399999999999" fill="#009ef6" opacity="1"/><rect x="242.848" y="562.716" width="77.616" height="23.284799999999997" rx="11.642399999999999" fill="#c552ff" opacity="1"/><rect x="330.464" y="562.716" width="243" height="23.284799999999997" rx="11.642399999999999" fill="#009ef6" opacity="1"/><rect x="583.4639999999999" y="562.716" width="235" height="23.284799999999997" rx="11.642399999999999" fill="#F5CF05" opacity="1"/><rect x="-20" y="593.7624" width="77.616" height="23.284799999999997" rx="11.642399999999999" fill="#ff7360" opacity="1"/><rect x="67.616" y="593.7624" width="167" height="23.284799999999997" rx="11.642399999999999" fill="#009ef6" opacity="1"/><rect x="244.61599999999999" y="593.7624" width="161" height="23.284799999999997" rx="11.642399999999999" fill="#c552ff" opacity="1"/><rect x="415.616" y="593.7624" width="77.616" height="23.284799999999997" rx="11.642399999999999" fill="#F5CF05" opacity="1"/><rect x="503.23199999999997" y="593.7624" width="227" height="23.284799999999997" rx="11.642399999999999" fill="#F5CF05" opacity="1"/><rect x="740.232" y="593.7624" width="77.616" height="23.284799999999997" rx="11.642399999999999" fill="#FBE300" opacity="1"/><rect x="-20" y="624.8088" width="87" height="23.284799999999997" rx="11.642399999999999" fill="#FBE300" opacity="1"/><rect x="77" y="624.8088" width="122" height="23.284799999999997" rx="11.642399999999999" fill="#009ef6" opacity="1"/><rect x="209" y="624.8088" width="130" height="23.284799999999997" rx="11.642399999999999" fill="#FBE300" opacity="1"/><rect x="349" y="624.8088" width="77.616" height="23.284799999999997" rx="11.642399999999999" fill="#c552ff" opacity="1"/><rect x="436.616" y="624.8088" width="195" height="23.284799999999997" rx="11.642399999999999" fill="#FBE300" opacity="1"/><rect x="641.616" y="624.8088" width="105" height="23.284799999999997" rx="11.642399999999999" fill="#FBE300" opacity="1"/><rect x="756.616" y="624.8088" width="231" height="23.284799999999997" rx="11.642399999999999" fill="#FBE300" opacity="1"/><rect x="-20" y="655.8552" width="256" height="23.284799999999997" rx="11.642399999999999" fill="#F5CF05" opacity="1"/><rect x="246" y="655.8552" width="77.616" height="23.284799999999997" rx="11.642399999999999" fill="#ff7360" opacity="1"/><rect x="333.616" y="655.8552" width="100" height="23.284799999999997" rx="11.642399999999999" fill="#009ef6" opacity="1"/><rect x="443.616" y="655.8552" width="191" height="23.284799999999997" rx="11.642399999999999" fill="#F5CF05" opacity="1"/><rect x="644.616" y="655.8552" width="197" height="23.284799999999997" rx="11.642399999999999" fill="#ff7360" opacity="1"/><rect x="-20" y="686.9016" width="140" height="23.284799999999997" rx="11.642399999999999" fill="#009ef6" opacity="1"/><rect x="130" y="686.9016" width="161" height="23.284799999999997" rx="11.642399999999999" fill="#c552ff" opacity="1"/><rect x="301" y="686.9016" width="84" height="23.284799999999997" rx="11.642399999999999" fill="#c552ff" opacity="1"/><rect x="395" y="686.9016" width="220" height="23.284799999999997" rx="11.642399999999999" fill="#c552ff" opacity="1"/><rect x="625" y="686.9016" width="77.616" height="23.284799999999997" rx="11.642399999999999" fill="#FBE300" opacity="1"/><rect x="712.616" y="686.9016" width="121" height="23.284799999999997" rx="11.642399999999999" fill="#c552ff" opacity="1"/><rect x="-20" y="717.948" width="77.616" height="23.284799999999997" rx="11.642399999999999" fill="#009ef6" opacity="1"/><rect x="67.616" y="717.948" width="129" height="23.284799999999997" rx="11.642399999999999" fill="#009ef6" opacity="1"/><rect x="206.61599999999999" y="717.948" width="77.616" height="23.284799999999997" rx="11.642399999999999" fill="#009ef6" opacity="1"/><rect x="294.23199999999997" y="717.948" width="91" height="23.284799999999997" rx="11.642399999999999" fill="#FBE300" opacity="1"/><rect x="395.23199999999997" y="717.948" width="190" height="23.284799999999997" rx="11.642399999999999" fill="#c552ff" opacity="1"/><rect x="595.232" y="717.948" width="77.616" height="23.284799999999997" rx="11.642399999999999" fill="#F5CF05" opacity="1"/><rect x="682.848" y="717.948" width="77.616" height="23.284799999999997" rx="11.642399999999999" fill="#F5CF05" opacity="1"/><rect x="770.4639999999999" y="717.948" width="80" height="23.284799999999997" rx="11.642399999999999" fill="#ff7360" opacity="1"/><rect x="-20" y="748.9943999999999" width="118" height="23.284799999999997" rx="11.642399999999999" fill="#009ef6" opacity="1"/><rect x="108" y="748.9943999999999" width="77.616" height="23.284799999999997" rx="11.642399999999999" fill="#c552ff" opacity="1"/><rect x="195.61599999999999" y="748.9943999999999" width="176" height="23.284799999999997" rx="11.642399999999999" fill="#FBE300" opacity="1"/><rect x="381.616" y="748.9943999999999" width="203" height="23.284799999999997" rx="11.642399999999999" fill="#c552ff" opacity="1"/><rect x="594.616" y="748.9943999999999" width="106" height="23.284799999999997" rx="11.642399999999999" fill="#c552ff" opacity="1"/><rect x="710.616" y="748.9943999999999" width="77.616" height="23.284799999999997" rx="11.642399999999999" fill="#FBE300" opacity="1"/></svg>